<mxfile host="app.diagrams.net" modified="2023-01-17T16:02:29.105Z" agent="5.0 (Macintosh; Intel Mac OS X 10_15_7) AppleWebKit/605.1.15 (KHTML, like Gecko) Version/16.2 Safari/605.1.15" etag="GUewpVydC5vcx22skqbr" version="20.8.5" type="github">
  <diagram id="KbEZXw-cHdkrE3BKkjBX" name="Seite-1">
    <mxGraphModel dx="1501" dy="886" grid="1" gridSize="10" guides="1" tooltips="1" connect="1" arrows="1" fold="1" page="1" pageScale="1" pageWidth="827" pageHeight="1169" math="0" shadow="0">
      <root>
        <mxCell id="0" />
        <mxCell id="1" parent="0" />
        <mxCell id="TVaq8hLyKjKKxxEduZ5t-12" style="edgeStyle=orthogonalEdgeStyle;rounded=0;orthogonalLoop=1;jettySize=auto;html=1;exitX=0.75;exitY=1;exitDx=0;exitDy=0;entryX=0;entryY=0.5;entryDx=0;entryDy=0;fontSize=7;" parent="1" source="bS1PQ2K4Qz8r77oU7H7q-1" target="TVaq8hLyKjKKxxEduZ5t-2" edge="1">
          <mxGeometry relative="1" as="geometry" />
        </mxCell>
        <mxCell id="bS1PQ2K4Qz8r77oU7H7q-1" value="" style="rounded=0;whiteSpace=wrap;html=1;" parent="1" vertex="1">
          <mxGeometry x="159" y="710" width="210" height="120" as="geometry" />
        </mxCell>
        <mxCell id="qC7JPCxahKUoyQgx_diR-21" style="edgeStyle=orthogonalEdgeStyle;rounded=0;orthogonalLoop=1;jettySize=auto;html=1;exitX=0;exitY=0.5;exitDx=0;exitDy=0;entryX=1;entryY=0.25;entryDx=0;entryDy=0;fontSize=7;" edge="1" parent="1" source="TVaq8hLyKjKKxxEduZ5t-1" target="qC7JPCxahKUoyQgx_diR-20">
          <mxGeometry relative="1" as="geometry" />
        </mxCell>
        <mxCell id="TVaq8hLyKjKKxxEduZ5t-1" value="" style="rounded=0;whiteSpace=wrap;html=1;dashed=1;" parent="1" vertex="1">
          <mxGeometry x="470" y="360" width="357" height="470" as="geometry" />
        </mxCell>
        <mxCell id="TVaq8hLyKjKKxxEduZ5t-2" value="" style="rounded=1;whiteSpace=wrap;html=1;movable=1;resizable=1;rotatable=1;deletable=1;editable=1;connectable=1;" parent="1" vertex="1">
          <mxGeometry x="339" y="930" width="111" height="30" as="geometry" />
        </mxCell>
        <mxCell id="TVaq8hLyKjKKxxEduZ5t-6" value="" style="rounded=0;whiteSpace=wrap;html=1;" parent="1" vertex="1">
          <mxGeometry x="706.88" y="420" width="113.75" height="40" as="geometry" />
        </mxCell>
        <mxCell id="TVaq8hLyKjKKxxEduZ5t-7" value="Master Node" style="text;strokeColor=none;align=center;fillColor=none;html=1;verticalAlign=middle;whiteSpace=wrap;rounded=0;" parent="1" vertex="1">
          <mxGeometry x="229" y="680" width="60" height="30" as="geometry" />
        </mxCell>
        <mxCell id="TVaq8hLyKjKKxxEduZ5t-8" value="Worker" style="text;strokeColor=none;align=center;fillColor=none;html=1;verticalAlign=middle;whiteSpace=wrap;rounded=0;" parent="1" vertex="1">
          <mxGeometry x="610" y="330" width="60" height="30" as="geometry" />
        </mxCell>
        <mxCell id="TVaq8hLyKjKKxxEduZ5t-10" value="PersistantVolume" style="text;strokeColor=none;align=center;fillColor=none;html=1;verticalAlign=middle;whiteSpace=wrap;rounded=0;movable=1;resizable=1;rotatable=1;deletable=1;editable=1;connectable=1;" parent="1" vertex="1">
          <mxGeometry x="364.5" y="930" width="60" height="30" as="geometry" />
        </mxCell>
        <mxCell id="TVaq8hLyKjKKxxEduZ5t-14" value="Rabbitmq" style="text;strokeColor=none;align=center;fillColor=none;html=1;verticalAlign=middle;whiteSpace=wrap;rounded=0;" parent="1" vertex="1">
          <mxGeometry x="646.88" y="420" width="60" height="30" as="geometry" />
        </mxCell>
        <mxCell id="TVaq8hLyKjKKxxEduZ5t-11" style="edgeStyle=orthogonalEdgeStyle;rounded=0;orthogonalLoop=1;jettySize=auto;html=1;fontSize=7;exitX=1;exitY=0.5;exitDx=0;exitDy=0;entryX=0.996;entryY=0.888;entryDx=0;entryDy=0;entryPerimeter=0;" parent="1" source="TVaq8hLyKjKKxxEduZ5t-2" target="TVaq8hLyKjKKxxEduZ5t-6" edge="1">
          <mxGeometry relative="1" as="geometry">
            <mxPoint x="479" y="955" as="sourcePoint" />
          </mxGeometry>
        </mxCell>
        <mxCell id="qC7JPCxahKUoyQgx_diR-1" value="" style="verticalLabelPosition=bottom;verticalAlign=top;html=1;shape=mxgraph.basic.4_point_star_2;dx=0.8;fontSize=7;" vertex="1" parent="1">
          <mxGeometry x="349" y="140" width="100" height="100" as="geometry" />
        </mxCell>
        <mxCell id="qC7JPCxahKUoyQgx_diR-2" value="www" style="text;strokeColor=none;align=center;fillColor=none;html=1;verticalAlign=middle;whiteSpace=wrap;rounded=0;" vertex="1" parent="1">
          <mxGeometry x="369" y="175" width="60" height="30" as="geometry" />
        </mxCell>
        <mxCell id="qC7JPCxahKUoyQgx_diR-3" value="" style="shape=singleArrow;direction=north;whiteSpace=wrap;html=1;fontSize=7;arrowWidth=0.2857142857142857;arrowSize=0.0625;" vertex="1" parent="1">
          <mxGeometry x="392" y="250" width="14" height="30" as="geometry" />
        </mxCell>
        <mxCell id="qC7JPCxahKUoyQgx_diR-6" value="" style="rounded=0;whiteSpace=wrap;html=1;" vertex="1" parent="1">
          <mxGeometry x="706.88" y="370" width="113.75" height="40" as="geometry" />
        </mxCell>
        <mxCell id="qC7JPCxahKUoyQgx_diR-11" value="Bookstack" style="text;strokeColor=none;align=center;fillColor=none;html=1;verticalAlign=middle;whiteSpace=wrap;rounded=0;" vertex="1" parent="1">
          <mxGeometry x="646.88" y="375" width="60" height="30" as="geometry" />
        </mxCell>
        <mxCell id="qC7JPCxahKUoyQgx_diR-14" style="edgeStyle=orthogonalEdgeStyle;rounded=0;orthogonalLoop=1;jettySize=auto;html=1;exitX=1;exitY=0.25;exitDx=0;exitDy=0;entryX=1.002;entryY=0.838;entryDx=0;entryDy=0;entryPerimeter=0;fontSize=7;" edge="1" parent="1" source="qC7JPCxahKUoyQgx_diR-12" target="qC7JPCxahKUoyQgx_diR-6">
          <mxGeometry relative="1" as="geometry" />
        </mxCell>
        <mxCell id="qC7JPCxahKUoyQgx_diR-15" style="edgeStyle=orthogonalEdgeStyle;rounded=0;orthogonalLoop=1;jettySize=auto;html=1;exitX=0;exitY=0.5;exitDx=0;exitDy=0;fontSize=7;" edge="1" parent="1" source="qC7JPCxahKUoyQgx_diR-12">
          <mxGeometry relative="1" as="geometry">
            <mxPoint x="320" y="950" as="targetPoint" />
          </mxGeometry>
        </mxCell>
        <mxCell id="qC7JPCxahKUoyQgx_diR-12" value="" style="rounded=1;whiteSpace=wrap;html=1;movable=1;resizable=1;rotatable=1;deletable=1;editable=1;connectable=1;" vertex="1" parent="1">
          <mxGeometry x="339" y="970" width="111" height="30" as="geometry" />
        </mxCell>
        <mxCell id="qC7JPCxahKUoyQgx_diR-13" value="PersistantVolume" style="text;strokeColor=none;align=center;fillColor=none;html=1;verticalAlign=middle;whiteSpace=wrap;rounded=0;movable=1;resizable=1;rotatable=1;deletable=1;editable=1;connectable=1;" vertex="1" parent="1">
          <mxGeometry x="364.5" y="970" width="60" height="30" as="geometry" />
        </mxCell>
        <mxCell id="qC7JPCxahKUoyQgx_diR-22" style="edgeStyle=orthogonalEdgeStyle;rounded=0;orthogonalLoop=1;jettySize=auto;html=1;entryX=0;entryY=0.5;entryDx=0;entryDy=0;entryPerimeter=0;fontSize=7;" edge="1" parent="1" source="qC7JPCxahKUoyQgx_diR-20" target="qC7JPCxahKUoyQgx_diR-3">
          <mxGeometry relative="1" as="geometry" />
        </mxCell>
        <mxCell id="qC7JPCxahKUoyQgx_diR-20" value="" style="shape=ext;double=1;rounded=1;whiteSpace=wrap;html=1;fontSize=7;" vertex="1" parent="1">
          <mxGeometry x="390" y="560" width="50" height="30" as="geometry" />
        </mxCell>
        <mxCell id="qC7JPCxahKUoyQgx_diR-23" value="Ingres" style="text;strokeColor=none;align=center;fillColor=none;html=1;verticalAlign=middle;whiteSpace=wrap;rounded=0;" vertex="1" parent="1">
          <mxGeometry x="385" y="560" width="60" height="30" as="geometry" />
        </mxCell>
        <mxCell id="qC7JPCxahKUoyQgx_diR-24" value="" style="shape=display;whiteSpace=wrap;html=1;fontSize=7;" vertex="1" parent="1">
          <mxGeometry x="480" y="590" width="40" height="10" as="geometry" />
        </mxCell>
        <mxCell id="qC7JPCxahKUoyQgx_diR-25" value="&lt;font style=&quot;font-size: 8px;&quot;&gt;Service&lt;/font&gt;" style="text;strokeColor=none;align=center;fillColor=none;html=1;verticalAlign=middle;whiteSpace=wrap;rounded=0;" vertex="1" parent="1">
          <mxGeometry x="480" y="585" width="40" height="15" as="geometry" />
        </mxCell>
        <mxCell id="qC7JPCxahKUoyQgx_diR-26" value="" style="html=1;whiteSpace=wrap;shape=isoCube2;backgroundOutline=1;isoAngle=15;fontSize=8;" vertex="1" parent="1">
          <mxGeometry x="800.63" y="440" width="20" height="20" as="geometry" />
        </mxCell>
        <mxCell id="qC7JPCxahKUoyQgx_diR-27" value="" style="html=1;whiteSpace=wrap;shape=isoCube2;backgroundOutline=1;isoAngle=15;fontSize=8;" vertex="1" parent="1">
          <mxGeometry y="380" width="20" height="20" as="geometry" />
        </mxCell>
        <mxCell id="qC7JPCxahKUoyQgx_diR-28" value="PersistantVolumeClaim" style="text;strokeColor=none;align=center;fillColor=none;html=1;verticalAlign=middle;whiteSpace=wrap;rounded=0;" vertex="1" parent="1">
          <mxGeometry x="60" y="375" width="60" height="30" as="geometry" />
        </mxCell>
        <mxCell id="qC7JPCxahKUoyQgx_diR-29" value="" style="html=1;whiteSpace=wrap;shape=isoCube2;backgroundOutline=1;isoAngle=15;fontSize=8;" vertex="1" parent="1">
          <mxGeometry x="800.63" y="390" width="20" height="20" as="geometry" />
        </mxCell>
      </root>
    </mxGraphModel>
  </diagram>
</mxfile>
